<svg width="48" height="49" viewBox="0 0 48 49" fill="none" xmlns="http://www.w3.org/2000/svg">
<path d="M11.7333 34.2333L19.8667 26.1L25.2 31.4333L35.3333 21.3667V26.5H39.3333V14.5H27.3333V18.5H32.4667L25.2 25.7667L19.8667 20.4333L8.93333 31.4333L11.7333 34.2333ZM4 48.5C2.93333 48.5 2 48.1 1.2 47.3C0.4 46.5 0 45.5667 0 44.5V4.5C0 3.43333 0.4 2.5 1.2 1.7C2 0.9 2.93333 0.5 4 0.5H44C45.0667 0.5 46 0.9 46.8 1.7C47.6 2.5 48 3.43333 48 4.5V44.5C48 45.5667 47.6 46.5 46.8 47.3C46 48.1 45.0667 48.5 44 48.5H4ZM4 44.5H44V4.5H4V44.5Z" fill="white"/>
</svg>
